<?xml version="1.0" encoding="UTF-8" standalone="no"?>
<svg
   xmlns:dc="http://purl.org/dc/elements/1.1/"
   xmlns:cc="http://creativecommons.org/ns#"
   xmlns:rdf="http://www.w3.org/1999/02/22-rdf-syntax-ns#"
   xmlns:svg="http://www.w3.org/2000/svg"
   xmlns="http://www.w3.org/2000/svg"
   id="svg4412"
   version="1.1"
   viewBox="0 0 35.630305 35.630307"
   height="35.630306mm"
   width="35.630306mm">
  <defs
     id="defs4406">
    <clipPath
       id="clipPath1556"
       clipPathUnits="userSpaceOnUse">
      <path
         id="path1554"
         d="m 242.762,448.246 h 35.55 v -71.091 h -35.55 z" />
    </clipPath>
    <clipPath
       id="clipPath1708"
       clipPathUnits="userSpaceOnUse">
      <path
         id="path1706"
         d="M 365.557,372.594 H 455.07 V 359.197 H 365.557 Z" />
    </clipPath>
    <clipPath
       id="clipPath1300"
       clipPathUnits="userSpaceOnUse">
      <path
         id="path1298"
         d="m 367.886,300.778 h 65.195 V 235.58 h -65.195 z" />
    </clipPath>
    <clipPath
       id="clipPath1372"
       clipPathUnits="userSpaceOnUse">
      <path
         id="path1370"
         d="M 363.392,237.141 H 403.03 V 205.229 H 363.392 Z" />
    </clipPath>
    <clipPath
       id="clipPath1616"
       clipPathUnits="userSpaceOnUse">
      <path
         id="path1614"
         d="M 57.2368,150.854 H 130.65 V 77.4414 H 57.2368 Z" />
    </clipPath>
    <clipPath
       id="clipPath664"
       clipPathUnits="userSpaceOnUse">
      <path
         id="path662"
         d="m 262.361,66.1875 h 30.868 V 44.2773 h -30.868 z" />
    </clipPath>
    <clipPath
       id="clipPath680"
       clipPathUnits="userSpaceOnUse">
      <path
         id="path678"
         d="m 206.024,83.7422 h 33.13 v -18.583 h -33.13 z" />
    </clipPath>
    <clipPath
       id="clipPath786"
       clipPathUnits="userSpaceOnUse">
      <path
         id="path784"
         d="m 61,448.16 h 64.61 v -70.1 H 61 Z" />
    </clipPath>
    <clipPath
       id="clipPath1064"
       clipPathUnits="userSpaceOnUse">
      <path
         id="path1062"
         d="m 170,444.75 h 70.24 V 377.41 H 170 Z" />
    </clipPath>
    <clipPath
       id="clipPath1120"
       clipPathUnits="userSpaceOnUse">
      <path
         id="path1118"
         d="m 289.83,436.26 h 63.56 v -58.67 h -63.56 z" />
    </clipPath>
    <clipPath
       id="clipPath1158"
       clipPathUnits="userSpaceOnUse">
      <path
         id="path1156"
         d="m 402.08,432.49 h 65.86 v -54.83 h -65.86 z" />
    </clipPath>
    <clipPath
       id="clipPath1182"
       clipPathUnits="userSpaceOnUse">
      <path
         id="path1180"
         d="M 397.86,434.26 H 430.9 V 409.1 h -33.04 z" />
    </clipPath>
    <clipPath
       id="clipPath32"
       clipPathUnits="userSpaceOnUse">
      <path
         id="path30"
         d="m 54.02,326.01 h 70.94 V 260.67 H 54.02 Z" />
    </clipPath>
    <clipPath
       id="clipPath824"
       clipPathUnits="userSpaceOnUse">
      <path
         id="path822"
         d="m 175.93,327.18 h 64.13 v -65.26 h -64.13 z" />
    </clipPath>
    <clipPath
       id="clipPath844"
       clipPathUnits="userSpaceOnUse">
      <path
         id="path842"
         d="m 183.243,324.715 h 25.326 v -33.647 h -25.326 z" />
    </clipPath>
    <clipPath
       id="clipPath908"
       clipPathUnits="userSpaceOnUse">
      <path
         id="path906"
         d="m 197.267,316.041 h 19.948 v -35.416 h -19.948 z" />
    </clipPath>
  </defs>
  <metadata
     id="metadata4409">
    <rdf:RDF>
      <cc:Work
         rdf:about="">
        <dc:format>image/svg+xml</dc:format>
        <dc:type
           rdf:resource="http://purl.org/dc/dcmitype/StillImage" />
        <dc:title></dc:title>
      </cc:Work>
    </rdf:RDF>
  </metadata>
  <g
     transform="translate(55.893471,22.232439)"
     id="layer1">
    <g
       id="g3429"
       transform="matrix(0.35277777,0,0,-0.35277777,-106.05729,104.40058)">
      <g
         id="g814"
         transform="translate(240.3613,308.4551)">
        <path
           d="m 0,0 c 0,-1.7 -0.09,-3.37 -0.27,-5.02 -2.12,-20.32 -17.02,-36.84 -36.52,-41.39 -3.49,-0.82 -7.13,-1.25 -10.87,-1.25 -26.33,0 -47.67,21.34 -47.67,47.66 0,26.33 21.34,47.67 47.67,47.67 C -21.34,47.67 0,26.33 0,0"
           style="fill:#e74c3c;fill-opacity:1;fill-rule:nonzero;stroke:none"
           id="path816" />
      </g>
      <g
         id="g818">
        <g
           id="g820" />
        <g
           id="g832">
          <g
             clip-path="url(#clipPath824)"
             id="g830"
             style="opacity:0.5">
            <g
               transform="translate(240.0601,303.3101)"
               id="g828">
              <path
                 d="m 0,0 c -2.12,-20.32 -17.02,-36.84 -36.52,-41.39 l -27.61,23.08 35.93,42.18 z"
                 style="fill:#c0392b;fill-opacity:1;fill-rule:nonzero;stroke:none"
                 id="path826" />
            </g>
          </g>
        </g>
      </g>
      <g
         id="g834"
         transform="translate(177.938,320.6792)">
        <path
           d="m 0,0 c -1.528,0 -2.768,1.239 -2.768,2.768 0,1.527 1.24,2.767 2.768,2.767 1.529,0 2.768,-1.24 2.768,-2.767 C 2.768,1.239 1.529,0 0,0 m 0,-8.052 c -1.528,0 -2.768,1.24 -2.768,2.768 0,1.528 1.24,2.767 2.768,2.767 1.529,0 2.768,-1.239 2.768,-2.767 0,-1.528 -1.239,-2.768 -2.768,-2.768 m 0,-8.052 c -1.528,0 -2.768,1.24 -2.768,2.768 0,1.529 1.24,2.768 2.768,2.768 1.529,0 2.768,-1.239 2.768,-2.768 0,-1.528 -1.239,-2.768 -2.768,-2.768 m 0,-8.051 c -1.528,0 -2.768,1.239 -2.768,2.768 0,1.528 1.24,2.767 2.768,2.767 1.529,0 2.768,-1.239 2.768,-2.767 0,-1.529 -1.239,-2.768 -2.768,-2.768 m 0,-8.052 c -1.528,0 -2.768,1.24 -2.768,2.768 0,1.528 1.24,2.768 2.768,2.768 1.529,0 2.768,-1.24 2.768,-2.768 0,-1.528 -1.239,-2.768 -2.768,-2.768 M 30.903,9.521 H -2.011 c -1.666,0 -3.017,-1.351 -3.017,-3.017 v -39.165 c 0,-1.666 1.351,-3.017 3.017,-3.017 h 32.914 c 1.667,0 3.018,1.351 3.018,3.017 V 6.504 c 0,1.666 -1.351,3.017 -3.018,3.017"
           style="fill:#ffffff;fill-opacity:1;fill-rule:nonzero;stroke:none"
           id="path836" />
      </g>
      <g
         id="g838">
        <g
           id="g840" />
        <g
           id="g872">
          <g
             clip-path="url(#clipPath844)"
             id="g870"
             style="opacity:0.5">
            <path
               d="m 208.569,323.984 h -25.326 v 0.731 h 25.326 z"
               style="fill:#bdc3c7;fill-opacity:1;fill-rule:nonzero;stroke:none"
               id="path846" />
            <path
               d="m 208.569,320.327 h -25.326 v 0.731 h 25.326 z"
               style="fill:#bdc3c7;fill-opacity:1;fill-rule:nonzero;stroke:none"
               id="path848" />
            <path
               d="m 208.569,316.669 h -25.326 v 0.731 h 25.326 z"
               style="fill:#bdc3c7;fill-opacity:1;fill-rule:nonzero;stroke:none"
               id="path850" />
            <path
               d="m 208.569,313.012 h -25.326 v 0.731 h 25.326 z"
               style="fill:#bdc3c7;fill-opacity:1;fill-rule:nonzero;stroke:none"
               id="path852" />
            <g
               transform="translate(208.5693,309.3545)"
               id="g856">
              <path
                 d="M 0,0 H -25.326 V 0.731 H 0 Z"
                 style="fill:#bdc3c7;fill-opacity:1;fill-rule:nonzero;stroke:none"
                 id="path854" />
            </g>
            <path
               d="m 208.569,305.697 h -25.326 v 0.731 h 25.326 z"
               style="fill:#bdc3c7;fill-opacity:1;fill-rule:nonzero;stroke:none"
               id="path858" />
            <g
               transform="translate(208.5693,302.0396)"
               id="g862">
              <path
                 d="M 0,0 H -25.326 V 0.731 H 0 Z"
                 style="fill:#bdc3c7;fill-opacity:1;fill-rule:nonzero;stroke:none"
                 id="path860" />
            </g>
            <path
               d="m 208.569,298.382 h -25.326 v 0.731 h 25.326 z"
               style="fill:#bdc3c7;fill-opacity:1;fill-rule:nonzero;stroke:none"
               id="path864" />
            <path
               d="m 208.569,294.725 h -25.326 v 0.731 h 25.326 z"
               style="fill:#bdc3c7;fill-opacity:1;fill-rule:nonzero;stroke:none"
               id="path866" />
            <path
               d="m 208.569,291.068 h -25.326 v 0.731 h 25.326 z"
               style="fill:#bdc3c7;fill-opacity:1;fill-rule:nonzero;stroke:none"
               id="path868" />
          </g>
        </g>
      </g>
      <g
         id="g874"
         transform="translate(217.2139,315.8115)">
        <path
           d="M 0,0 C -0.917,0.498 -2.063,0.158 -2.56,-0.759 L -4.414,-4.176 -1.095,-5.977 0.76,-2.56 C 1.257,-1.643 0.917,-0.497 0,0"
           style="fill:#ffcd02;fill-opacity:1;fill-rule:nonzero;stroke:none"
           id="path876" />
      </g>
      <g
         id="g878"
         transform="translate(198.1245,280.625)">
        <path
           d="M 0,0 C 0.545,-0.296 1.227,-0.094 1.523,0.451 L 2.627,2.484 0.651,3.556 -0.452,1.523 C -0.748,0.978 -0.545,0.295 0,0"
           style="fill:#2b2b2b;fill-opacity:1;fill-rule:nonzero;stroke:none"
           id="path880" />
      </g>
      <g
         id="g882"
         transform="translate(217.3145,307.5181)">
        <path
           d="M 0,0 C 1.065,1.963 0.337,4.417 -1.626,5.482 -3.588,6.546 -6.043,5.819 -7.107,3.856 -8.172,1.894 -7.445,-0.561 -5.482,-1.626 -3.52,-2.69 -1.064,-1.963 0,0"
           style="fill:#356272;fill-opacity:1;fill-rule:nonzero;stroke:none"
           id="path884" />
      </g>
      <g
         id="g886"
         transform="translate(210.207,311.374)">
        <path
           d="m 0,0 -12.451,-22.95 c -1.065,-1.963 -0.337,-4.417 1.625,-5.482 1.963,-1.065 4.417,-0.337 5.482,1.626 l 12.451,22.95 z"
           style="fill:#3a6f81;fill-opacity:1;fill-rule:nonzero;stroke:none"
           id="path888" />
      </g>
      <g
         id="g890"
         transform="translate(216.0786,305.2397)">
        <path
           d="M 0,0 -7.108,3.856 -6.6,4.793 0.508,0.938 Z"
           style="fill:#356272;fill-opacity:1;fill-rule:nonzero;stroke:none"
           id="path892" />
      </g>
      <g
         id="g894"
         transform="translate(215.1323,303.4956)">
        <path
           d="M 0,0 -7.108,3.856 -6.6,4.793 0.508,0.938 Z"
           style="fill:#356272;fill-opacity:1;fill-rule:nonzero;stroke:none"
           id="path896" />
      </g>
      <g
         id="g898"
         transform="translate(216.5869,306.1772)">
        <path
           d="M 0,0 -0.706,-1.302 -0.238,-1.557 -3.5,-7.57 -2.68,-8.016 1.289,-0.699 Z"
           style="fill:#2b2b2b;fill-opacity:1;fill-rule:nonzero;stroke:none"
           id="path900" />
      </g>
      <g
         id="g902">
        <g
           id="g904" />
        <g
           id="g916">
          <g
             clip-path="url(#clipPath908)"
             id="g914"
             style="opacity:0.5">
            <g
               transform="translate(217.2148,315.8115)"
               id="g912">
              <path
                 d="m 0,0 h -0.001 c -0.916,0.498 -2.063,0.158 -2.56,-0.759 l -0.848,-1.565 c -1.45,0.015 -2.86,-0.75 -3.599,-2.114 l -12.451,-22.95 c -0.879,-1.62 -0.534,-3.571 0.715,-4.804 l -0.798,-1.472 c -0.296,-0.545 -0.094,-1.227 0.452,-1.523 z"
                 style="fill:#cccccc;fill-opacity:1;fill-rule:nonzero;stroke:none"
                 id="path910" />
            </g>
          </g>
        </g>
      </g>
    </g>
  </g>
</svg>
